<svg width="315" height="143" viewBox="0 0 315 143" fill="none" xmlns="http://www.w3.org/2000/svg">
<path d="M310.829 60.673C301.183 58.6159 291.8 54.5014 282.49 51.3199C265.674 45.5736 270.83 40.4756 253.487 36.6672C210.782 27.2895 168.113 27.7364 124.723 26.3239C109.056 25.8138 93.603 22.5733 77.8973 22.9385C65.5072 23.2266 53.6862 25.995 41.9286 29.7625C30.4041 33.4553 18.5157 36.7248 11.5206 47.4765C5.77064 56.3144 2.77668 67.3206 6.16726 77.5379C13.4366 99.4437 38.2897 105.144 58.727 105.558C84.4952 106.081 109.48 100.899 134.437 95.0802C161.463 88.7789 188.323 82.8841 215.788 78.888C245.533 74.5599 251.577 68.4807 279.857 58.6108C284.835 56.8737 293.009 53.8495 296.5 50" stroke="#FF735C" stroke-width="8" stroke-linecap="round"/>
<path d="M43.0499 44.3647C42.4598 47.5234 42.3161 50.7892 42.31 53.9934C42.291 63.9882 42.8657 73.9742 43.4198 83.9479" stroke="#353535" stroke-width="8" stroke-linecap="round"/>
<path d="M28.8072 57.1274C28.2958 54.6985 28.4038 51.0768 30.1842 49.1737C32.9245 46.2444 36.9114 43.3939 41.0356 43.265C43.5807 43.1855 46.1237 42.8821 48.6707 42.9157C52.7169 42.9689 56.7937 43.3824 60.8272 43.7069C63.1578 43.8944 65.8771 44.0057 67.8354 45.4744" stroke="#353535" stroke-width="8" stroke-linecap="round"/>
<path d="M77.8242 41.0352C77.8242 47.611 78.135 54.2395 78.708 60.7856C79.4883 69.7004 80.0792 79.1371 83.9898 87.3593C85.0908 89.6741 85.7878 88.9895 86.6616 86.8558C87.5267 84.7432 88.2252 82.4661 89.3744 80.4847C90.1661 79.1198 90.6602 77.8555 91.0597 76.3126C91.375 75.095 91.5589 73.1033 92.3956 72.0892C92.7427 71.6685 95.5319 75.1137 95.6839 75.2748C97.4382 77.1345 99.4639 79.5537 101.829 80.6799C103.079 81.275 104.232 80.7682 105.22 79.9195C112.445 73.7149 114.196 61.9088 113.523 52.9348C113.382 51.0514 113.255 49.1668 113.112 47.283C112.987 45.6298 112.516 43.5439 112.968 41.96" stroke="#353535" stroke-width="8" stroke-linecap="round"/>
<path d="M126.471 40.1104C128.008 42.7073 128.138 45.9812 128.32 48.9066C128.593 53.2787 128.403 57.7848 129.101 62.1215C129.549 64.9054 130.19 67.6429 130.54 70.4451" stroke="#353535" stroke-width="8" stroke-linecap="round"/>
<path d="M144.004 40.1201C146.569 48.3663 148.163 56.7549 150.259 65.142" stroke="#353535" stroke-width="8" stroke-linecap="round"/>
<path d="M135.664 39.0776C139.103 40.7066 143.581 40.2966 147.277 40.8442C149.662 41.1975 152.274 40.9021 154.691 40.9021" stroke="#353535" stroke-width="8" stroke-linecap="round"/>
<path d="M167.202 39.8594C167.798 42.3926 168.742 44.8243 169.345 47.3601C170.278 51.2841 170.815 55.3379 171.908 59.2195C172.075 59.8132 173.944 65.4376 174.24 65.1419" stroke="#353535" stroke-width="8" stroke-linecap="round"/>
<path d="M163.292 40.1201C168.883 41.7043 175.072 42.2053 180.755 42.2053" stroke="#353535" stroke-width="8" stroke-linecap="round"/>
<path d="M192.223 41.1626C191.338 45.3704 192.028 50.3909 192.6 54.6292C192.827 56.3082 193.055 57.9838 193.237 59.6683C193.286 60.1224 193.278 60.75 193.527 61.1743C193.95 61.8964 194.248 60.3709 194.309 60.1896" stroke="#353535" stroke-width="8" stroke-linecap="round"/>
<path d="M194.048 41.4233C196.968 41.4946 201.131 41.1901 203.692 42.7266" stroke="#353535" stroke-width="8" stroke-linecap="round"/>
<path d="M195.352 52.8917C197.458 52.681 199.377 53.2779 201.346 53.9343" stroke="#353535" stroke-width="8" stroke-linecap="round"/>
<path d="M193.006 63.8384C193.914 63.8918 194.545 64.6618 195.265 65.1416C196.636 66.056 198.063 66.8351 199.507 67.6177C200.837 68.3381 201.416 68.7906 202.91 68.7906" stroke="#353535" stroke-width="8" stroke-linecap="round"/>
<path d="M216.236 43C216.402 45.441 217.016 47.8104 217.148 50.2691C217.341 53.857 217.457 57.5444 217.148 61.1293C217.08 61.9204 217.273 64.2339 216.96 63.504C216.186 61.6979 216.156 59.0141 216.033 57.0748C215.814 53.6164 216.663 48.5681 219.204 46.0264C220.349 44.8822 223.113 45.3458 224.548 45.3458C226.892 45.3458 228.798 49.0481 227.646 51.1379C226.355 53.4822 223.515 56.2258 220.696 56.539C220.003 56.616 219.949 56.5287 220.725 56.8721C223.123 57.9336 225.44 58.9251 227.965 59.6812C232.287 60.9754 236.309 62.4454 240.476 64.1122" stroke="#353535" stroke-width="7" stroke-linecap="round"/>
</svg>
