<svg width="526" height="285" viewBox="0 0 526 285" fill="none" xmlns="http://www.w3.org/2000/svg">
<path d="M6.59455 141.282C126.364 114.662 240.782 114.559 355.637 113.859C401.668 113.578 473.637 104.59 506.52 122.052C534.782 137.061 501.176 163.722 472.581 178.659C430.637 200.57 372.879 201.972 329.923 200.502C278.457 198.741 237.143 194.187 193.929 181.875C163.364 173.167 142.306 156.487 119.494 142.441C98.2756 129.377 82.4 111.133 57.6979 100.455" stroke="#FF735C" stroke-width="8" stroke-linecap="round"/>
<path d="M179.609 133.392C176.71 141.506 173.753 149.59 170.715 157.648" stroke="#353535" stroke-width="8" stroke-linecap="round"/>
<path d="M156.161 132.179C159.918 132.492 163.585 131.812 167.346 131.774C173.526 131.713 179.718 131.707 185.898 131.774C188.537 131.803 191.012 132.783 193.444 133.706C194.211 133.997 196.805 135.629 196.589 135.413" stroke="#353535" stroke-width="8" stroke-linecap="round"/>
<path d="M212.355 134.2C211.996 136.17 210.126 138.658 209.345 140.579C207.494 145.133 205.944 150.621 205.572 155.537C205.289 159.262 205.727 162.873 207.099 166.363C207.486 167.345 209.254 171.799 210.333 170.181" stroke="#353535" stroke-width="8" stroke-linecap="round"/>
<path d="M210.738 137.03C215.953 134.614 222.274 134.699 227.314 132.179" stroke="#353535" stroke-width="8" stroke-linecap="round"/>
<path d="M207.1 151.584C213.456 152.996 220.08 151.988 226.505 151.988" stroke="#353535" stroke-width="8" stroke-linecap="round"/>
<path d="M209.93 170.585C215.344 170.169 219.879 172.609 225.225 173.168C228.713 173.533 231.016 173.259 234.186 172.202" stroke="#353535" stroke-width="8" stroke-linecap="round"/>
<path d="M253.995 130.966C256.182 142.445 256.573 153.941 256.106 165.599C256.048 167.051 254.767 175.032 257.095 175.032C260.131 175.032 263.18 174.959 266.213 175.122C271.803 175.422 277.156 176.922 282.654 177.817C285.777 178.326 288.652 178.202 291.728 177.548C293.067 177.263 292.414 176.902 291.593 176.245" stroke="#353535" stroke-width="8" stroke-linecap="round"/>
<path d="M314.636 131.371C314.37 133.503 299.977 132.678 298.51 132.786C298.083 132.817 294.191 132.696 294.288 133.572C294.483 135.33 296.211 137.504 296.759 139.232C299.417 147.62 300.842 156.332 303.676 164.678C305.089 168.84 307.166 171.646 309.561 175.19C311.594 178.199 315.351 177.054 318.679 177.054C322.715 177.054 326.75 177.054 330.785 177.054C333.144 177.054 329.153 174.841 328.382 174.224" stroke="#353535" stroke-width="8" stroke-linecap="round"/>
<path d="M300.487 153.605C304.623 154.295 308.578 155.788 312.863 156.211C316.934 156.612 321.061 156.435 325.148 156.435" stroke="#353535" stroke-width="8" stroke-linecap="round"/>
<path d="M376.945 128C374.78 128.182 372.675 128.886 370.532 129.2C366.032 129.858 361.275 130.111 356.873 131.288C352.623 132.425 350.418 137.368 349.154 141.152C346.25 149.843 346.517 159.796 348.56 168.679C349.467 172.624 351.188 178.034 354.308 180.871C355.401 181.865 356.838 182.686 358.322 182.863C361.663 183.26 365.377 182.725 368.631 182.167C373 181.418 378.35 180.52 381.506 176.959C384.824 173.214 382.189 164.709 377.777 162.703C376.042 161.915 367.539 157.431 367.539 161.263" stroke="#353535" stroke-width="8" stroke-linecap="round"/>
<path d="M394.601 125.904C394.7 126.897 395.141 127.901 395.326 128.885C396.159 133.328 396.926 137.793 397.501 142.278C398.233 147.978 398.344 153.675 399.677 159.296C400.312 161.973 401.201 164.561 402.078 167.161C403.218 170.537 404.108 174.093 405.044 177.54C405.351 178.67 405.722 179.714 405.93 180.86C405.973 181.094 404.733 177.767 404.464 176.96" stroke="#353535" stroke-width="8" stroke-linecap="round"/>
<path d="M395.471 130.545C398.909 130.545 402.828 130.105 406.14 131.174C410.594 132.611 416.331 139.497 414.552 144.437C413.831 146.441 411.881 148.343 410.555 149.981C409.771 150.951 408.724 152.289 407.477 152.705C406.451 153.047 405.18 152.904 404.109 152.882C403.551 152.871 401.958 152.302 401.498 152.608C401.264 152.764 402.009 152.846 402.272 152.947C402.963 153.211 403.653 153.479 404.335 153.769C406.914 154.866 409.28 156.437 411.716 157.814C416.021 160.247 420.568 162.793 423.545 166.871C424.966 168.818 426.03 171.403 428.251 172.608C430.312 173.727 429.127 171.603 428.541 170.578" stroke="#353535" stroke-width="8" stroke-linecap="round"/>
<path d="M439.274 165.356C437.456 162.993 437.299 159.649 436.744 156.83C435.754 151.807 434.914 146.691 433.633 141.73C432.803 138.515 431.465 135.48 430.732 132.237C430.515 131.276 430.73 130.919 431.796 131.609C433.168 132.497 434.262 133.977 435.277 135.203C438.327 138.884 441.195 142.712 444.109 146.5C446.984 150.238 449.943 153.907 453.424 157.104C454.503 158.095 455.865 158.978 456.792 160.118C457.698 161.233 455.148 159.667 454.939 159.554" stroke="#353535" stroke-width="8" stroke-linecap="round"/>
<path d="M436.953 154.333C440.636 154.333 444.282 153.462 447.977 153.462" stroke="#353535" stroke-width="8" stroke-linecap="round"/>
<path d="M467.703 160.715C468.044 159.448 467.561 158.132 467.251 156.895C466.227 152.797 465.631 148.608 464.496 144.534C463.442 140.752 462.082 137.069 460.579 133.446C460.004 132.06 459.341 130.779 458.629 129.465C458.565 129.348 458.29 128.858 458.323 128.692C458.411 128.252 461.29 129.92 461.45 130.029C463.998 131.785 466.202 133.881 468.508 135.928C468.849 136.23 473.504 139.569 473.504 137.83C473.504 135.9 473.028 132.469 475.39 131.56C477.721 130.664 479.705 133.301 481.192 134.606C484.918 137.878 494.24 149.465 491.49 145.34" stroke="#353535" stroke-width="8" stroke-linecap="round"/>
</svg>
